<?xml version="1.0" encoding="utf-8"?>
<!-- Generator: Adobe Illustrator 18.0.0, SVG Export Plug-In . SVG Version: 6.00 Build 0)  -->
<!DOCTYPE svg PUBLIC "-//W3C//DTD SVG 1.1//EN" "http://www.w3.org/Graphics/SVG/1.1/DTD/svg11.dtd">
<svg version="1.1" id="Layer_1" xmlns="http://www.w3.org/2000/svg" xmlns:xlink="http://www.w3.org/1999/xlink" x="0px" y="0px"
	 viewBox="-117.3 0 168.4 56.8" enable-background="new -117.3 0 168.4 56.8" xml:space="preserve">
<g>
	<path fill="#ffffff" d="M50.8,45.7v-4.6c-0.1-3-1.2-5.6-3.3-7.7c-1.8-1.8-4.1-2.9-6.6-3.2c2.4-2.2,3.8-4.9,4.2-8.2
		c0-0.1,0-0.2,0-0.3c1.5-0.3,2.8-0.9,3.9-2c1.4-1.4,2.1-3.2,2.1-5.1c0-2-0.7-3.8-2.2-5.3c-1.4-1.4-3.2-2.2-5.2-2.2
		c-3.4,0-6.4,1.1-8.9,3.4c-2.6,2.3-4,5.2-4.3,8.4l0,0c-1.4,0.3-2.7,1-3.8,2c-1.5,1.4-2.3,3.3-2.3,5.2c0,1.8,0.6,3.4,1.7,4.8
		c-2.7-1.2-6-1.1-8.8,0.1c-1.3-0.6-2.8-0.9-4.3-1c-3,0-5.7,1.1-7.9,3.3C3.1,35.7,2,38.4,2,41.4v4.4c0,1.8,0.7,3.4,2,4.7
		c2.4,2.4,6.6,2.5,9.1,0.3c2.4,2.2,6.4,2.2,8.8,0c2.5,2.3,6.7,2.2,9.2-0.3c0.4-0.4,0.7-0.7,0.9-1.2c0.4,0.2,0.8,0.4,1.2,0.6
		c0,0.1,0,0.2,0,0.3c0,1.8,0.7,3.5,2.1,4.8c1.3,1.2,2.9,1.8,4.6,1.8c3,0,5.7-1.1,7.8-3.3c1.2-1.2,2.2-2.9,2.6-4.3
		S50.8,45.8,50.8,45.7z M29,45.8c0,0.7-0.3,1.4-0.8,1.9c-0.5,0.5-1.1,0.8-1.9,0.8c-0.7,0-1.4-0.3-1.9-0.8c-0.5-0.5-0.8-1.2-0.8-1.9
		v-4.4c0-0.5-0.2-0.9-0.5-1.3c-0.3-0.3-0.7-0.5-1.2-0.5c-0.5,0-0.9,0.2-1.3,0.5c-0.3,0.3-0.5,0.7-0.5,1.3v4.4c0,0.7-0.3,1.4-0.8,1.9
		c-0.5,0.5-1.1,0.8-1.9,0.8s-1.4-0.3-1.9-0.8c-0.5-0.5-0.8-1.2-0.8-1.9v-4.4c0-0.5-0.2-0.9-0.5-1.2c-0.3-0.4-0.7-0.5-1.2-0.5
		c-0.5,0-0.9,0.2-1.3,0.5c-0.3,0.3-0.5,0.7-0.5,1.2v4.4c0,0.7-0.3,1.4-0.8,1.9c-0.5,0.5-1.1,0.8-1.9,0.8c-0.7,0-1.4-0.3-1.9-0.8
		C6.2,47.1,6,46.5,6,45.8v-4.4c0-1.9,0.7-3.6,2.1-5c1.4-1.4,3.1-2.1,5-2.1c1.6,0.1,3.1,0.6,4.4,1.5c1.3-1,2.7-1.5,4.4-1.5
		c1.9,0,3.6,0.7,5,2.1c1.4,1.4,2.1,3.1,2.1,5L29,45.8L29,45.8z M31.8,29.9c-0.9,0-1.8-0.4-2.4-1c-0.7-0.7-1-1.5-1-2.4
		c0-0.9,0.4-1.7,1-2.4c0.7-0.6,1.5-1,2.4-1c1.6,0,2.3-0.7,2.5-2.1l0-0.7l0.1-0.7c0.2-2.3,1.2-4.3,3.1-6c1.8-1.6,3.9-2.4,6.3-2.4
		c0.9,0,1.7,0.3,2.4,1c0.7,0.7,1,1.5,1,2.5c0,0.9-0.3,1.7-1,2.3c-0.6,0.6-1.4,0.9-2.5,1c-1.5,0-2.3,0.7-2.5,2.2c0,0.3,0,0.5,0,0.7
		c0,0.3,0,0.5-0.1,0.6c-0.3,2.4-1.3,4.4-3.1,5.9C36.3,29.1,34.2,29.9,31.8,29.9z M46.8,45.7c0,2-0.7,3.6-2,5c-1.4,1.4-3,2.1-5,2.1
		c-0.7,0-1.4-0.3-1.9-0.8c-0.5-0.5-0.8-1.1-0.8-1.9c0-0.8,0.3-1.4,0.8-1.9c0.5-0.5,1.1-0.7,1.8-0.8l0.5-0.1c0.9-0.2,1.3-0.7,1.3-1.7
		v-4.4c0-0.5-0.2-0.9-0.5-1.3c-0.3-0.3-0.8-0.5-1.3-0.5c-0.5,0-0.9,0.2-1.2,0.5c-0.3,0.3-0.5,0.7-0.5,1.3v2.2c0,0.7-0.3,1.4-0.8,1.9
		c-0.5,0.5-1.1,0.8-1.9,0.8c-0.7,0-1.4-0.3-1.9-0.8c-0.5-0.5-0.8-1.2-0.8-1.9v-2.2c0-2,0.7-3.7,2.1-5.1c1.4-1.4,3.1-2.1,5-2.1
		c1.9,0,3.6,0.7,5,2c1.4,1.4,2.1,3,2.1,5L46.8,45.7L46.8,45.7L46.8,45.7z"/>
</g>
<text transform="matrix(1 0 0 1 -117.3098 49.9258)" display="none" fill="#ffffff" font-family="'ArialMT'" font-size="21.0444">Powered by</text>
<text transform="matrix(1 0 0 1 -30.8648 49.9258)" fill="#ffffff" font-family="'ArialMT'" font-size="21.0444">By</text>
</svg>
